<svg width="64" height="64" viewBox="0 0 64 64" fill="none" xmlns="http://www.w3.org/2000/svg">
<rect width="64" height="64" rx="32" fill="#79DFFF" fill-opacity="0.1"/>
<rect x="10" y="10" width="44" height="44" rx="22" fill="#79DFFF" fill-opacity="0.3"/>
<path fill-rule="evenodd" clip-rule="evenodd" d="M35.5924 35.5722C35.8471 35.3064 35.8382 34.8842 35.5724 34.6296L32.6711 31.9296L33.0396 27.6118C33.0711 27.2451 32.7991 26.9224 32.4324 26.8909C32.0631 26.8602 31.7427 27.1318 31.7116 27.4984L31.3156 32.134C31.2982 32.3344 31.3729 32.5322 31.5182 32.6718L34.6498 35.5922C34.7791 35.7158 34.9453 35.7776 35.1111 35.7776C35.2867 35.7776 35.4613 35.7087 35.5924 35.5722ZM41.1111 31.9998C41.1111 37.022 37.0222 41.1109 32 41.1109C26.9778 41.1109 22.8889 37.022 22.8889 31.9998C22.8889 31.6309 23.1867 31.3331 23.5556 31.3331C23.9244 31.3331 24.2222 31.6309 24.2222 31.9998C24.2222 36.2887 27.7111 39.7776 32 39.7776C36.2889 39.7776 39.7778 36.2887 39.7778 31.9998C39.7778 27.7109 36.2889 24.222 32 24.222C29.5422 24.222 27.2222 25.4042 25.7689 27.3553H28C28.3689 27.3553 28.6667 27.6531 28.6667 28.022C28.6667 28.3909 28.3689 28.6887 28 28.6887H24.4444C24.0756 28.6887 23.7778 28.3909 23.7778 28.022V24.4664C23.7778 24.0976 24.0756 23.7998 24.4444 23.7998C24.8133 23.7998 25.1111 24.0976 25.1111 24.4664V26.0487C26.8178 24.0709 29.3422 22.8887 32 22.8887C37.0222 22.8887 41.1111 26.9776 41.1111 31.9998Z" fill="#096A88"/>
</svg>
