<svg width="64" height="64" viewBox="0 0 64 64" fill="none" xmlns="http://www.w3.org/2000/svg">
<rect width="64" height="64" rx="32" fill="#79DFFF" fill-opacity="0.1"/>
<rect x="10" y="10" width="44" height="44" rx="22" fill="#79DFFF" fill-opacity="0.3"/>
<path fill-rule="evenodd" clip-rule="evenodd" d="M37.7244 35.1109C37.7244 37.6842 35.6311 39.7776 33.0577 39.7776H32.0088C29.5422 39.7776 27.4933 37.8442 27.3511 35.3776C27.3288 35.0353 27.3155 34.9376 27.2977 34.8665L26.0933 30.2176C26.2933 30.0531 26.6933 29.9331 27.0266 29.9953C27.5733 30.0976 28.3866 30.9376 28.4711 32.4753L28.4933 32.8798L28.8622 33.0442C29.5777 33.3687 30.1511 33.742 30.6133 34.182C30.88 34.4353 31.3022 34.4265 31.5555 34.1598C31.8133 33.8931 31.8 33.4709 31.5333 33.2176C31.04 32.7465 30.4622 32.3465 29.7644 31.9998C29.7555 31.9153 29.7422 31.8353 29.7244 31.7553V25.9998C29.7244 25.5109 30.1244 25.1109 30.6133 25.1109C31.1022 25.1109 31.5022 25.5109 31.5022 25.9998V30.6665C31.5022 31.0353 31.8 31.3331 32.1688 31.3331C32.5377 31.3331 32.8355 31.0353 32.8355 30.6665V25.1109C32.8355 24.622 33.2355 24.222 33.7244 24.222C34.2133 24.222 34.6133 24.622 34.6133 25.1109V31.1109C34.6133 31.4798 34.9111 31.7776 35.28 31.7776C35.6488 31.7776 35.9466 31.4798 35.9466 31.1109V27.3331C35.9466 26.8442 36.3466 26.4442 36.8355 26.4442C37.3244 26.4442 37.7244 26.8442 37.7244 27.3331V35.1109ZM36.8355 25.1109C36.52 25.1109 36.2177 25.1776 35.9466 25.2931V25.1109C35.9466 23.8842 34.9511 22.8887 33.7244 22.8887C32.8666 22.8887 32.12 23.3776 31.7511 24.0931C31.4177 23.8931 31.0311 23.7776 30.6133 23.7776C29.3866 23.7776 28.3911 24.7731 28.3911 25.9998V29.2442C28.04 28.9464 27.6533 28.7553 27.2755 28.6842C26.3733 28.5153 25.1555 28.902 24.7555 29.8176L24.6666 30.0309L26 35.1776C26.0044 35.2309 26.0088 35.3242 26.0177 35.4576C26.2044 38.6264 28.8355 41.1109 32.0088 41.1109H33.0577C36.3644 41.1109 39.0577 38.4176 39.0577 35.1109V27.3331C39.0577 26.1064 38.0622 25.1109 36.8355 25.1109Z" fill="#096A88"/>
</svg>
