<svg width="64" height="64" viewBox="0 0 64 64" fill="none" xmlns="http://www.w3.org/2000/svg">
<rect width="64" height="64" rx="32" fill="#79DFFF" fill-opacity="0.1"/>
<rect x="10" y="10" width="44" height="44" rx="22" fill="#79DFFF" fill-opacity="0.3"/>
<path fill-rule="evenodd" clip-rule="evenodd" d="M27.4471 24.5348C27.4647 23.1319 28.6074 22 30.0145 22H33.9855C35.3926 22 36.5353 23.1319 36.5528 24.5348H40.1082C40.556 24.5348 40.919 24.8979 40.919 25.3457C40.919 25.7935 40.556 26.1565 40.1082 26.1565H35.7564C35.7517 26.1566 35.747 26.1566 35.7422 26.1566C35.7375 26.1566 35.7328 26.1566 35.728 26.1565H28.2719C28.2672 26.1566 28.2625 26.1566 28.2577 26.1566C28.253 26.1566 28.2483 26.1566 28.2436 26.1565H23.8918C23.444 26.1565 23.081 25.7935 23.081 25.3457C23.081 24.8979 23.444 24.5348 23.8918 24.5348H27.4471ZM29.0691 24.5348H34.9309C34.9136 24.0276 34.4969 23.6216 33.9855 23.6216H30.0145C29.503 23.6216 29.0864 24.0276 29.0691 24.5348ZM25.7629 28.9712C26.2107 28.9712 26.5737 29.3342 26.5737 29.782V38.1623C26.5737 38.7055 26.5743 39.0641 26.5968 39.3389C26.6184 39.6042 26.6564 39.7193 26.6915 39.7883C26.7952 39.9917 26.9605 40.1571 27.164 40.2607C27.233 40.2959 27.348 40.3338 27.6133 40.3555C27.8881 40.3779 28.2468 40.3786 28.7899 40.3786H35.2099C35.7531 40.3786 36.1117 40.3779 36.3865 40.3555C36.6519 40.3338 36.7669 40.2959 36.8359 40.2607C37.0393 40.1571 37.2047 39.9917 37.3084 39.7883C37.3435 39.7193 37.3814 39.6042 37.4031 39.3389C37.4256 39.0641 37.4262 38.7055 37.4262 38.1623V29.782C37.4262 29.3342 37.7892 28.9712 38.237 28.9712C38.6848 28.9712 39.0478 29.3342 39.0478 29.782V38.1945C39.0478 38.6968 39.0479 39.1222 39.0194 39.471C38.9895 39.8366 38.9243 40.1888 38.7533 40.5245C38.4941 41.033 38.0807 41.4465 37.5721 41.7056C37.2364 41.8767 36.8842 41.9419 36.5186 41.9717C36.1699 42.0002 35.7445 42.0002 35.2421 42.0002H28.7577C28.2554 42.0002 27.83 42.0002 27.4813 41.9717C27.1157 41.9419 26.7635 41.8767 26.4278 41.7056C25.9192 41.4465 25.5057 41.033 25.2466 40.5245C25.0756 40.1888 25.0104 39.8366 24.9805 39.471C24.952 39.1222 24.952 38.6969 24.952 38.1945L24.952 29.782C24.952 29.3342 25.3151 28.9712 25.7629 28.9712ZM30.1081 29.0271C30.5559 29.0271 30.9189 29.3901 30.9189 29.8379V37.9461C30.9189 38.3939 30.5559 38.7569 30.1081 38.7569C29.6603 38.7569 29.2973 38.3939 29.2973 37.9461V29.8379C29.2973 29.3901 29.6603 29.0271 30.1081 29.0271ZM34.7028 29.8379C34.7028 29.3901 34.3397 29.0271 33.8919 29.0271C33.4441 29.0271 33.0811 29.3901 33.0811 29.8379V37.9461C33.0811 38.3939 33.4441 38.7569 33.8919 38.7569C34.3397 38.7569 34.7028 38.3939 34.7028 37.9461V29.8379Z" fill="#096A88"/>
</svg>
